# xmcd
# 
# Track frame offsets:
#     150
#     19927
#     38110
#     56772
#     74762
#     93930
#     108670
#     124497
#     142655
#     159947
# 
# Disc length: 2358
# 
# Revision: 9
# Processed by: cddbd v1.5.2PL0 Copyright (c) Steve Scherf et al.
# Submitted via: fre:ac v1.0.31
# 
DISCID=8a09340a
DTITLE=Various Artist - 世紀金選 CD1
DYEAR=1998
DGENRE=POP
TTITLE0=江惠 - 酒後的心聲
TTITLE1=江惠;施文彬 - 傷心酒店 (feat. 施文彬)
TTITLE2=江惠 - 等待舞伴
TTITLE3=江惠 - 愛我三分鐘
TTITLE4=江惠 - 返來我身邊
TTITLE5=江惠 - 感情放一邊
TTITLE6=江惠 - 褪色的戀情
TTITLE7=江惠 - 你著忍耐
TTITLE8=江惠 - 傷心的所在
TTITLE9=江惠 - 無奈的相思
EXTD=
EXTT0=
EXTT1=
EXTT2=
EXTT3=
EXTT4=
EXTT5=
EXTT6=
EXTT7=
EXTT8=
EXTT9=
PLAYORDER=
